<svg xmlns="http://www.w3.org/2000/svg" xmlns:xlink="http://www.w3.org/1999/xlink" width="37.7785" height="37.7785" viewBox="0 0 37.7785 37.7785"><defs><style>.cls-1{isolation:isolate;}.cls-2{opacity:0.6;mix-blend-mode:multiply;}.cls-3{fill:#231f1f;}.cls-4{fill:url(#linear-gradient);}.cls-5{fill:#f2f2ef;}</style><linearGradient id="linear-gradient" x1="31.1567" y1="3.8589" x2="7.0481" y2="33.3973" gradientUnits="userSpaceOnUse"><stop offset="0" stop-color="#b405ae"/><stop offset="0.5371" stop-color="#f30607"/><stop offset="1" stop-color="#f4d628"/></linearGradient></defs><g class="cls-1"><g id="Layer_1" data-name="Layer 1"><g class="cls-2"><circle class="cls-3" cx="18.8892" cy="18.8892" r="18.8892"/></g><circle class="cls-4" cx="18.8892" cy="18.8892" r="18.8892"/><path class="cls-5" d="M23.03,29.7248H14.7483A6.7022,6.7022,0,0,1,8.0537,23.03V14.7483a6.7022,6.7022,0,0,1,6.6946-6.6946H23.03a6.7022,6.7022,0,0,1,6.6946,6.6946V23.03A6.7022,6.7022,0,0,1,23.03,29.7248ZM14.7483,10.4692a4.284,4.284,0,0,0-4.279,4.2791V23.03a4.284,4.284,0,0,0,4.279,4.2791H23.03a4.284,4.284,0,0,0,4.279-4.2791V14.7483a4.284,4.284,0,0,0-4.279-4.2791Z"/><path class="cls-5" d="M18.8893,24.4278a5.5386,5.5386,0,1,1,5.5385-5.5386A5.5449,5.5449,0,0,1,18.8893,24.4278Zm0-8.9032a3.3646,3.3646,0,1,0,3.3645,3.3646A3.3683,3.3683,0,0,0,18.8893,15.5246Z"/><circle class="cls-5" cx="24.7077" cy="13.0286" r="0.9365"/></g></g></svg>